<mxfile host="Electron" modified="2024-02-16T13:10:00.767Z" agent="Mozilla/5.0 (Windows NT 10.0; Win64; x64) AppleWebKit/537.36 (KHTML, like Gecko) draw.io/23.0.2 Chrome/120.0.6099.109 Electron/28.1.0 Safari/537.36" etag="YVpHFcUCcobgt6qMBjxJ" version="23.0.2" type="device">
  <diagram name="Page-1" id="13e1069c-82ec-6db2-03f1-153e76fe0fe0">
    <mxGraphModel dx="1317" dy="836" grid="1" gridSize="10" guides="1" tooltips="1" connect="1" arrows="1" fold="1" page="1" pageScale="1" pageWidth="1100" pageHeight="850" background="none" math="0" shadow="0">
      <root>
        <mxCell id="0" />
        <mxCell id="1" parent="0" />
        <mxCell id="7baba1c4bc27f4b0-2" value=":Мобильное приложение" style="shape=umlLifeline;perimeter=lifelinePerimeter;whiteSpace=wrap;html=1;container=1;collapsible=0;recursiveResize=0;outlineConnect=0;rounded=1;shadow=0;comic=0;labelBackgroundColor=none;strokeWidth=1;fontFamily=Verdana;fontSize=12;align=center;" parent="1" vertex="1">
          <mxGeometry x="353" y="80" width="100" height="690" as="geometry" />
        </mxCell>
        <mxCell id="7baba1c4bc27f4b0-10" value="" style="html=1;points=[];perimeter=orthogonalPerimeter;rounded=0;shadow=0;comic=0;labelBackgroundColor=none;strokeWidth=1;fontFamily=Verdana;fontSize=12;align=center;" parent="7baba1c4bc27f4b0-2" vertex="1">
          <mxGeometry x="45" y="100" width="10" height="470" as="geometry" />
        </mxCell>
        <mxCell id="7baba1c4bc27f4b0-14" value="Получить диагнозы &lt;br&gt;из МКБ" style="html=1;verticalAlign=bottom;endArrow=block;entryX=0;entryY=0;labelBackgroundColor=none;fontFamily=Verdana;fontSize=12;edgeStyle=elbowEdgeStyle;elbow=vertical;" parent="7baba1c4bc27f4b0-2" edge="1">
          <mxGeometry relative="1" as="geometry">
            <mxPoint x="55" y="274" as="sourcePoint" />
            <mxPoint x="205" y="274.0000000000002" as="targetPoint" />
            <mxPoint as="offset" />
          </mxGeometry>
        </mxCell>
        <mxCell id="7baba1c4bc27f4b0-3" value=":Сервер" style="shape=umlLifeline;perimeter=lifelinePerimeter;whiteSpace=wrap;html=1;container=1;collapsible=0;recursiveResize=0;outlineConnect=0;rounded=1;shadow=0;comic=0;labelBackgroundColor=none;strokeWidth=1;fontFamily=Verdana;fontSize=12;align=center;" parent="1" vertex="1">
          <mxGeometry x="513" y="82" width="100" height="580" as="geometry" />
        </mxCell>
        <mxCell id="4ic2KZDitfakR41iYHdM-11" value="" style="html=1;points=[[0,0,0,0,5],[0,1,0,0,-5],[1,0,0,0,5],[1,1,0,0,-5]];perimeter=orthogonalPerimeter;outlineConnect=0;targetShapes=umlLifeline;portConstraint=eastwest;newEdgeStyle={&quot;curved&quot;:0,&quot;rounded&quot;:0};" vertex="1" parent="7baba1c4bc27f4b0-3">
          <mxGeometry x="45" y="446" width="10" height="122" as="geometry" />
        </mxCell>
        <mxCell id="4ic2KZDitfakR41iYHdM-27" value="" style="html=1;points=[[0,0,0,0,5],[0,1,0,0,-5],[1,0,0,0,5],[1,1,0,0,-5]];perimeter=orthogonalPerimeter;outlineConnect=0;targetShapes=umlLifeline;portConstraint=eastwest;newEdgeStyle={&quot;curved&quot;:0,&quot;rounded&quot;:0};" vertex="1" parent="7baba1c4bc27f4b0-3">
          <mxGeometry x="45" y="256" width="10" height="80" as="geometry" />
        </mxCell>
        <mxCell id="7baba1c4bc27f4b0-4" value=":БД" style="shape=umlLifeline;perimeter=lifelinePerimeter;whiteSpace=wrap;html=1;container=1;collapsible=0;recursiveResize=0;outlineConnect=0;rounded=1;shadow=0;comic=0;labelBackgroundColor=none;strokeWidth=1;fontFamily=Verdana;fontSize=12;align=center;" parent="1" vertex="1">
          <mxGeometry x="803" y="82" width="100" height="580" as="geometry" />
        </mxCell>
        <mxCell id="4ic2KZDitfakR41iYHdM-20" value="" style="html=1;points=[[0,0,0,0,5],[0,1,0,0,-5],[1,0,0,0,5],[1,1,0,0,-5]];perimeter=orthogonalPerimeter;outlineConnect=0;targetShapes=umlLifeline;portConstraint=eastwest;newEdgeStyle={&quot;curved&quot;:0,&quot;rounded&quot;:0};" vertex="1" parent="7baba1c4bc27f4b0-4">
          <mxGeometry x="45" y="446" width="10" height="142" as="geometry" />
        </mxCell>
        <mxCell id="7baba1c4bc27f4b0-5" value=":МКБ" style="shape=umlLifeline;perimeter=lifelinePerimeter;whiteSpace=wrap;html=1;container=1;collapsible=0;recursiveResize=0;outlineConnect=0;rounded=1;shadow=0;comic=0;labelBackgroundColor=none;strokeWidth=1;fontFamily=Verdana;fontSize=12;align=center;" parent="1" vertex="1">
          <mxGeometry x="653" y="80" width="100" height="310" as="geometry" />
        </mxCell>
        <mxCell id="4ic2KZDitfakR41iYHdM-12" value="" style="html=1;points=[[0,0,0,0,5],[0,1,0,0,-5],[1,0,0,0,5],[1,1,0,0,-5]];perimeter=orthogonalPerimeter;outlineConnect=0;targetShapes=umlLifeline;portConstraint=eastwest;newEdgeStyle={&quot;curved&quot;:0,&quot;rounded&quot;:0};" vertex="1" parent="7baba1c4bc27f4b0-5">
          <mxGeometry x="45" y="284" width="10" height="50" as="geometry" />
        </mxCell>
        <mxCell id="7baba1c4bc27f4b0-11" value="Начать приём" style="html=1;verticalAlign=bottom;endArrow=block;labelBackgroundColor=none;fontFamily=Verdana;fontSize=12;edgeStyle=elbowEdgeStyle;elbow=vertical;exitX=1;exitY=0.185;exitDx=0;exitDy=0;exitPerimeter=0;" parent="1" edge="1">
          <mxGeometry x="-0.0648" y="10" relative="1" as="geometry">
            <mxPoint x="253" y="199.99999999999994" as="sourcePoint" />
            <mxPoint x="402.5" y="200.2" as="targetPoint" />
            <mxPoint as="offset" />
          </mxGeometry>
        </mxCell>
        <mxCell id="4ic2KZDitfakR41iYHdM-3" value="" style="shape=umlLifeline;perimeter=lifelinePerimeter;whiteSpace=wrap;html=1;container=1;dropTarget=0;collapsible=0;recursiveResize=0;outlineConnect=0;portConstraint=eastwest;newEdgeStyle={&quot;curved&quot;:0,&quot;rounded&quot;:0};participant=umlActor;" vertex="1" parent="1">
          <mxGeometry x="238" y="110" width="20" height="682" as="geometry" />
        </mxCell>
        <mxCell id="4ic2KZDitfakR41iYHdM-4" value="врач" style="text;html=1;strokeColor=none;fillColor=none;align=center;verticalAlign=middle;whiteSpace=wrap;rounded=0;" vertex="1" parent="1">
          <mxGeometry x="218" y="70" width="60" height="30" as="geometry" />
        </mxCell>
        <mxCell id="4ic2KZDitfakR41iYHdM-2" value="" style="html=1;points=[];perimeter=orthogonalPerimeter;rounded=0;shadow=0;comic=0;labelBackgroundColor=none;strokeWidth=1;fontFamily=Verdana;fontSize=12;align=center;" vertex="1" parent="1">
          <mxGeometry x="243" y="170" width="10" height="510" as="geometry" />
        </mxCell>
        <mxCell id="4ic2KZDitfakR41iYHdM-6" value="ввод названия, &lt;br&gt;типа приёма" style="html=1;verticalAlign=bottom;endArrow=block;labelBackgroundColor=none;fontFamily=Verdana;fontSize=12;edgeStyle=elbowEdgeStyle;elbow=vertical;" edge="1" parent="1">
          <mxGeometry relative="1" as="geometry">
            <mxPoint x="258" y="298" as="sourcePoint" />
            <mxPoint x="403" y="298" as="targetPoint" />
            <Array as="points">
              <mxPoint x="333" y="298" />
            </Array>
          </mxGeometry>
        </mxCell>
        <mxCell id="4ic2KZDitfakR41iYHdM-7" value="поиск диагноза" style="html=1;verticalAlign=bottom;endArrow=block;entryX=0.5;entryY=0.174;labelBackgroundColor=none;fontFamily=Verdana;fontSize=12;edgeStyle=elbowEdgeStyle;elbow=vertical;entryDx=0;entryDy=0;entryPerimeter=0;" edge="1" parent="1">
          <mxGeometry relative="1" as="geometry">
            <mxPoint x="253" y="344" as="sourcePoint" />
            <mxPoint x="398" y="344" as="targetPoint" />
          </mxGeometry>
        </mxCell>
        <mxCell id="4ic2KZDitfakR41iYHdM-8" value="Запрос в МКБ" style="html=1;verticalAlign=bottom;endArrow=block;labelBackgroundColor=none;fontFamily=Verdana;fontSize=12;edgeStyle=elbowEdgeStyle;elbow=vertical;" edge="1" parent="1">
          <mxGeometry x="0.0071" y="10" relative="1" as="geometry">
            <mxPoint x="562.5" y="374" as="sourcePoint" />
            <mxPoint x="702.5" y="374" as="targetPoint" />
            <Array as="points">
              <mxPoint x="633" y="374" />
              <mxPoint x="608.25" y="407.5" />
            </Array>
            <mxPoint x="1" as="offset" />
          </mxGeometry>
        </mxCell>
        <mxCell id="4ic2KZDitfakR41iYHdM-9" value="Список диагнозов" style="html=1;verticalAlign=bottom;endArrow=block;curved=0;rounded=0;" edge="1" parent="1">
          <mxGeometry width="80" relative="1" as="geometry">
            <mxPoint x="702.5" y="399" as="sourcePoint" />
            <mxPoint x="562.5" y="399" as="targetPoint" />
          </mxGeometry>
        </mxCell>
        <mxCell id="4ic2KZDitfakR41iYHdM-10" value="Список диагнозов" style="html=1;verticalAlign=bottom;endArrow=block;curved=0;rounded=0;" edge="1" parent="1">
          <mxGeometry width="80" relative="1" as="geometry">
            <mxPoint x="563" y="404" as="sourcePoint" />
            <mxPoint x="402.5" y="404" as="targetPoint" />
          </mxGeometry>
        </mxCell>
        <mxCell id="4ic2KZDitfakR41iYHdM-13" value="выбор диагноза" style="html=1;verticalAlign=bottom;endArrow=block;entryX=0.5;entryY=0.174;labelBackgroundColor=none;fontFamily=Verdana;fontSize=12;edgeStyle=elbowEdgeStyle;elbow=vertical;entryDx=0;entryDy=0;entryPerimeter=0;" edge="1" parent="1">
          <mxGeometry x="0.0069" relative="1" as="geometry">
            <mxPoint x="253" y="424" as="sourcePoint" />
            <mxPoint x="398" y="424" as="targetPoint" />
            <mxPoint as="offset" />
          </mxGeometry>
        </mxCell>
        <mxCell id="4ic2KZDitfakR41iYHdM-14" value="запись голосового&lt;br&gt;сообщения" style="html=1;verticalAlign=bottom;endArrow=block;entryX=0.5;entryY=0.174;labelBackgroundColor=none;fontFamily=Verdana;fontSize=12;edgeStyle=elbowEdgeStyle;elbow=vertical;entryDx=0;entryDy=0;entryPerimeter=0;" edge="1" parent="1">
          <mxGeometry x="0.0069" relative="1" as="geometry">
            <mxPoint x="253" y="468" as="sourcePoint" />
            <mxPoint x="398" y="468" as="targetPoint" />
            <mxPoint as="offset" />
          </mxGeometry>
        </mxCell>
        <mxCell id="4ic2KZDitfakR41iYHdM-15" value="прикрепление &lt;br&gt;изображений" style="html=1;verticalAlign=bottom;endArrow=block;entryX=0.5;entryY=0.174;labelBackgroundColor=none;fontFamily=Verdana;fontSize=12;edgeStyle=elbowEdgeStyle;elbow=vertical;entryDx=0;entryDy=0;entryPerimeter=0;" edge="1" parent="1">
          <mxGeometry x="0.0069" relative="1" as="geometry">
            <mxPoint x="253" y="504.5" as="sourcePoint" />
            <mxPoint x="398" y="504.5" as="targetPoint" />
            <mxPoint as="offset" />
          </mxGeometry>
        </mxCell>
        <mxCell id="4ic2KZDitfakR41iYHdM-16" value="добавление &lt;br&gt;препарата в рецепт" style="html=1;verticalAlign=bottom;endArrow=block;entryX=0.5;entryY=0.174;labelBackgroundColor=none;fontFamily=Verdana;fontSize=12;edgeStyle=elbowEdgeStyle;elbow=vertical;entryDx=0;entryDy=0;entryPerimeter=0;" edge="1" parent="1">
          <mxGeometry x="0.0069" relative="1" as="geometry">
            <mxPoint x="253" y="548" as="sourcePoint" />
            <mxPoint x="398" y="548" as="targetPoint" />
            <mxPoint as="offset" />
          </mxGeometry>
        </mxCell>
        <mxCell id="4ic2KZDitfakR41iYHdM-17" value="провека наличия &lt;br&gt;препарата на складе" style="html=1;verticalAlign=bottom;endArrow=block;entryX=0.5;entryY=0.174;labelBackgroundColor=none;fontFamily=Verdana;fontSize=12;edgeStyle=elbowEdgeStyle;elbow=vertical;entryDx=0;entryDy=0;entryPerimeter=0;" edge="1" parent="1">
          <mxGeometry x="0.0069" relative="1" as="geometry">
            <mxPoint x="413" y="558" as="sourcePoint" />
            <mxPoint x="558" y="558" as="targetPoint" />
            <mxPoint as="offset" />
          </mxGeometry>
        </mxCell>
        <mxCell id="4ic2KZDitfakR41iYHdM-18" value="поиск&lt;br&gt;препарата на складе" style="html=1;verticalAlign=bottom;endArrow=block;labelBackgroundColor=none;fontFamily=Verdana;fontSize=12;edgeStyle=elbowEdgeStyle;elbow=vertical;" edge="1" parent="1" source="4ic2KZDitfakR41iYHdM-11">
          <mxGeometry x="0.0053" relative="1" as="geometry">
            <mxPoint x="563" y="558" as="sourcePoint" />
            <mxPoint x="852.5" y="558" as="targetPoint" />
            <Array as="points">
              <mxPoint x="683" y="558" />
            </Array>
            <mxPoint as="offset" />
          </mxGeometry>
        </mxCell>
        <mxCell id="4ic2KZDitfakR41iYHdM-21" value="количество препарата на складе" style="html=1;verticalAlign=bottom;endArrow=block;labelBackgroundColor=none;fontFamily=Verdana;fontSize=12;edgeStyle=elbowEdgeStyle;elbow=horizontal;" edge="1" parent="1">
          <mxGeometry x="0.0053" relative="1" as="geometry">
            <mxPoint x="852.5" y="588" as="sourcePoint" />
            <mxPoint x="562.5" y="588" as="targetPoint" />
            <Array as="points">
              <mxPoint x="683" y="588" />
            </Array>
            <mxPoint as="offset" />
          </mxGeometry>
        </mxCell>
        <mxCell id="4ic2KZDitfakR41iYHdM-22" value="количество &lt;br&gt;препарата на складе" style="html=1;verticalAlign=bottom;endArrow=block;curved=0;rounded=0;" edge="1" parent="1">
          <mxGeometry width="80" relative="1" as="geometry">
            <mxPoint x="563" y="598" as="sourcePoint" />
            <mxPoint x="402.5" y="598" as="targetPoint" />
          </mxGeometry>
        </mxCell>
        <mxCell id="4ic2KZDitfakR41iYHdM-24" value="Закончить прием" style="html=1;verticalAlign=bottom;endArrow=block;entryX=0.5;entryY=0.174;labelBackgroundColor=none;fontFamily=Verdana;fontSize=12;edgeStyle=elbowEdgeStyle;elbow=vertical;entryDx=0;entryDy=0;entryPerimeter=0;" edge="1" parent="1">
          <mxGeometry x="0.0069" relative="1" as="geometry">
            <mxPoint x="253" y="628" as="sourcePoint" />
            <mxPoint x="398" y="628" as="targetPoint" />
            <mxPoint as="offset" />
          </mxGeometry>
        </mxCell>
        <mxCell id="4ic2KZDitfakR41iYHdM-25" value="отправка данных" style="html=1;verticalAlign=bottom;endArrow=block;entryX=0.5;entryY=0.174;labelBackgroundColor=none;fontFamily=Verdana;fontSize=12;edgeStyle=elbowEdgeStyle;elbow=vertical;entryDx=0;entryDy=0;entryPerimeter=0;" edge="1" parent="1">
          <mxGeometry x="0.0069" relative="1" as="geometry">
            <mxPoint x="413" y="638" as="sourcePoint" />
            <mxPoint x="558" y="638" as="targetPoint" />
            <mxPoint as="offset" />
          </mxGeometry>
        </mxCell>
        <mxCell id="4ic2KZDitfakR41iYHdM-26" value="сохранение данных" style="html=1;verticalAlign=bottom;endArrow=block;labelBackgroundColor=none;fontFamily=Verdana;fontSize=12;edgeStyle=elbowEdgeStyle;elbow=vertical;" edge="1" parent="1">
          <mxGeometry x="0.0069" relative="1" as="geometry">
            <mxPoint x="563" y="641" as="sourcePoint" />
            <mxPoint x="852.5" y="641" as="targetPoint" />
            <mxPoint as="offset" />
          </mxGeometry>
        </mxCell>
        <mxCell id="4ic2KZDitfakR41iYHdM-28" value="" style="shape=umlLifeline;perimeter=lifelinePerimeter;whiteSpace=wrap;html=1;container=1;dropTarget=0;collapsible=0;recursiveResize=0;outlineConnect=0;portConstraint=eastwest;newEdgeStyle={&quot;curved&quot;:0,&quot;rounded&quot;:0};participant=umlActor;size=50;" vertex="1" parent="1">
          <mxGeometry x="73" y="110" width="27.5" height="670" as="geometry" />
        </mxCell>
        <mxCell id="4ic2KZDitfakR41iYHdM-32" value="" style="shape=umlDestroy;whiteSpace=wrap;html=1;strokeWidth=3;targetShapes=umlLifeline;" vertex="1" parent="4ic2KZDitfakR41iYHdM-28">
          <mxGeometry x="-2.5" y="660" width="30" height="30" as="geometry" />
        </mxCell>
        <mxCell id="4ic2KZDitfakR41iYHdM-29" value="пациент" style="text;html=1;strokeColor=none;fillColor=none;align=center;verticalAlign=middle;whiteSpace=wrap;rounded=0;" vertex="1" parent="1">
          <mxGeometry x="53" y="82" width="60" height="30" as="geometry" />
        </mxCell>
        <mxCell id="4ic2KZDitfakR41iYHdM-30" value="" style="html=1;points=[];perimeter=orthogonalPerimeter;rounded=0;shadow=0;comic=0;labelBackgroundColor=none;strokeWidth=1;fontFamily=Verdana;fontSize=12;align=center;" vertex="1" parent="1">
          <mxGeometry x="82" y="190" width="10" height="490" as="geometry" />
        </mxCell>
        <mxCell id="4ic2KZDitfakR41iYHdM-31" value="" style="shape=umlDestroy;whiteSpace=wrap;html=1;strokeWidth=3;targetShapes=umlLifeline;" vertex="1" parent="1">
          <mxGeometry x="233" y="780" width="30" height="30" as="geometry" />
        </mxCell>
        <mxCell id="4ic2KZDitfakR41iYHdM-33" value="опрос пациента" style="html=1;verticalAlign=bottom;endArrow=block;labelBackgroundColor=none;fontFamily=Verdana;fontSize=12;edgeStyle=elbowEdgeStyle;elbow=horizontal;" edge="1" parent="1" target="4ic2KZDitfakR41iYHdM-28">
          <mxGeometry x="0.0053" relative="1" as="geometry">
            <mxPoint x="243" y="234.5" as="sourcePoint" />
            <mxPoint x="-47" y="234.5" as="targetPoint" />
            <Array as="points">
              <mxPoint x="73.5" y="234.5" />
            </Array>
            <mxPoint as="offset" />
          </mxGeometry>
        </mxCell>
        <mxCell id="4ic2KZDitfakR41iYHdM-34" value="ответы пациента" style="html=1;verticalAlign=bottom;endArrow=block;labelBackgroundColor=none;fontFamily=Verdana;fontSize=12;edgeStyle=elbowEdgeStyle;elbow=vertical;" edge="1" parent="1">
          <mxGeometry relative="1" as="geometry">
            <mxPoint x="92" y="290" as="sourcePoint" />
            <mxPoint x="243" y="290" as="targetPoint" />
            <Array as="points">
              <mxPoint x="170" y="290" />
            </Array>
          </mxGeometry>
        </mxCell>
      </root>
    </mxGraphModel>
  </diagram>
</mxfile>
